<?xml version="1.0" encoding="UTF-8" standalone="no"?>
<!-- OLK - Open Library Kashmir - primary badge logo -->

<svg
   width="512"
   height="512"
   viewBox="0 0 512 512"
   version="1.1"
   id="svg29"
   sodipodi:docname="OLK_logo.svg"
   inkscape:version="1.4.3 (0d15f75042, 2025-12-25)"
   xmlns:inkscape="http://www.inkscape.org/namespaces/inkscape"
   xmlns:sodipodi="http://sodipodi.sourceforge.net/DTD/sodipodi-0.dtd"
   xmlns="http://www.w3.org/2000/svg"
   xmlns:svg="http://www.w3.org/2000/svg">
  <sodipodi:namedview
     id="namedview29"
     pagecolor="#ffffff"
     bordercolor="#000000"
     borderopacity="0.25"
     inkscape:showpageshadow="2"
     inkscape:pageopacity="0.0"
     inkscape:pagecheckerboard="0"
     inkscape:deskcolor="#d1d1d1"
     inkscape:zoom="2"
     inkscape:cx="255.5"
     inkscape:cy="195.25"
     inkscape:window-width="2477"
     inkscape:window-height="1363"
     inkscape:window-x="0"
     inkscape:window-y="0"
     inkscape:window-maximized="1"
     inkscape:current-layer="layer_mtn" />
  <defs
     id="defs6">
    <radialGradient
       id="bgGrad"
       cx="50%"
       cy="32%"
       r="85%">
      <stop
         offset="0%"
         stop-color="#1E293B"
         id="stop1" />
      <stop
         offset="100%"
         stop-color="#0F172A"
         id="stop2" />
    </radialGradient>
    <linearGradient
       id="coverGrad"
       x1="0"
       y1="0"
       x2="0"
       y2="1">
      <stop
         offset="0%"
         stop-color="#14B8A6"
         id="stop3" />
      <stop
         offset="100%"
         stop-color="#0D9488"
         id="stop4" />
    </linearGradient>
    <linearGradient
       id="baseFade"
       x1="0"
       y1="0"
       x2="0"
       y2="1">
      <stop
         offset="0%"
         stop-color="#0F172A"
         stop-opacity="0"
         id="stop5" />
      <stop
         offset="100%"
         stop-color="#0F172A"
         stop-opacity="0.85"
         id="stop6" />
    </linearGradient>
    <clipPath
       id="badgeClip">
      <circle
         cx="256"
         cy="256"
         r="240"
         id="circle6" />
    </clipPath>
  </defs>
  <g
     inkscape:label="badge"
     inkscape:groupmode="layer"
     id="layer_badge">
    <circle
       cx="256"
       cy="256"
       r="244"
       fill="#0F172A"
       id="circle7" />
    <circle
       cx="256"
       cy="256"
       r="240"
       fill="url(#bgGrad)"
       id="circle8" />
  </g>
  <g
     clip-path="url(#badgeClip)"
     id="g28">
    <g
       inkscape:label="mountains"
       inkscape:groupmode="layer"
       id="layer_mtn">
      <!-- back range -->
      <path
         fill="#334155"
         opacity="0.85"
         d="M 60 246 L 128 158 L 168 204 L 214 132 L 262 196 L 316 118 L 372 200 L 412 162 L 452 246 Z"
         id="path8" />
      <!-- snow caps back -->
      <path
         fill="#e2e8f0"
         opacity="0.9"
         d="M 214,132 234.7375,159.65 222,156 l -10,9 -11,-12 -5,7 z"
         id="path9"
         sodipodi:nodetypes="ccccccc" />
      <path
         fill="#e2e8f0"
         opacity="0.9"
         d="M 316,118 337.85747,150.00559 326,144 l -11,10 -11,-13 -7.2337,4.78202 z"
         id="path10"
         sodipodi:nodetypes="ccccccc" />
      <path
         fill="#e2e8f0"
         opacity="0.75"
         d="M 128,158 144.54391,177.0255 134,173 l -10,8 -9.93166,-4.97079 z"
         id="path11"
         sodipodi:nodetypes="cccccc" />
      <path
         fill="#e2e8f0"
         opacity="0.75"
         d="m 412,162 8.86459,18.61564 -6.77353,-3.88882 L 408,184 396.49808,176.72682 Z"
         id="path12"
         sodipodi:nodetypes="cccccc" />
      <!-- soft fade at the mountain base -->
      <rect
         x="40"
         y="206"
         width="432"
         height="46"
         fill="url(#baseFade)"
         id="rect12" />
    </g>
    <g
       inkscape:label="book"
       inkscape:groupmode="layer"
       id="layer_book"
       transform="translate(256,228) scale(1.09) translate(-256,-228)">
      <!-- cover -->
      <path
         fill="url(#coverGrad)"
         d="M 152 200 C 186 186 226 186 256 202 C 286 186 326 186 360 200            L 360 258 C 326 244 286 244 256 260 C 226 244 186 244 152 258 Z"
         id="path13" />
      <!-- left page -->
      <path
         fill="#F8FAFC"
         d="M 162 202 C 192 190 228 191 252 206 L 252 250 C 228 236 192 235 162 246 Z"
         id="path14" />
      <!-- right page -->
      <path
         fill="#F8FAFC"
         d="M 350 202 C 320 190 284 191 260 206 L 260 250 C 284 236 320 235 350 246 Z"
         id="path15" />
      <!-- page rules, left -->
      <g
         stroke="#0D9488"
         stroke-width="2.4"
         stroke-linecap="round"
         opacity="0.55"
         fill="none"
         id="g21">
        <path
           d="M 174 210 C 196 202 222 203 242 213"
           id="path16" />
        <path
           d="M 174 222 C 196 214 222 215 242 225"
           id="path17" />
        <path
           d="M 174 234 C 196 226 222 227 242 237"
           id="path18" />
        <path
           d="M 338 210 C 316 202 290 203 270 213"
           id="path19" />
        <path
           d="M 338 222 C 316 214 290 215 270 225"
           id="path20" />
        <path
           d="M 338 234 C 316 226 290 227 270 237"
           id="path21" />
      </g>
      <!-- spine -->
      <path
         fill="#0D9488"
         d="M 252 204 C 254 202 258 202 260 204 L 260 252 C 258 250 254 250 252 252 Z"
         id="path22" />
    </g>
    <g
       inkscape:label="wordmark"
       inkscape:groupmode="layer"
       id="layer_word">
      <path
         fill="#F8FAFC"
         d="M 160.08 330.56 Q 160.08 347.39 164.69 354.59 Q 169.31 361.78 179.34 361.78 Q 189.29 361.78 193.90 354.56 Q 198.52 347.34 198.52 330.56 Q 198.52 313.84 193.90 306.84 Q 189.29 299.82 179.34 299.82 Q 169.31 299.82 164.69 306.84 Q 160.08 313.84 160.08 330.56 Z M 142.58 330.56 Q 142.58 294.48 179.34 294.48 Q 197.48 294.48 206.76 303.65 Q 216.04 312.79 216.04 330.56 Q 216.04 348.55 206.64 357.82 Q 197.26 367.06 179.34 367.06 Q 161.45 367.06 152.02 357.83 Q 142.58 348.60 142.58 330.56 Z M 258.48 299.12 L 247.56 300.51 L 247.56 360.41 L 261.96 360.41 Q 273.20 360.41 278.48 359.35 L 282.80 344.64 L 287.54 344.64 L 285.53 366.00 L 221.88 366.00 L 221.88 362.15 L 230.96 360.72 L 230.96 300.51 L 221.95 299.12 L 221.95 295.28 L 258.48 295.28 L 258.48 299.12 Z M 369.01 295.28 L 369.01 299.12 L 360.36 300.51 L 337.00 321.13 L 368.12 360.72 L 374.70 362.15 L 374.70 366.00 L 351.60 366.00 L 325.19 331.93 L 319.06 337.21 L 319.06 360.72 L 329.24 362.15 L 329.24 366.00 L 293.38 366.00 L 293.38 362.15 L 302.46 360.72 L 302.46 300.51 L 293.38 299.12 L 293.38 295.28 L 328.19 295.28 L 328.19 299.12 L 319.06 300.51 L 319.06 329.30 L 351.29 300.51 L 344.80 299.12 L 344.80 295.28 L 369.01 295.28 Z"
         id="path23" />
      <path
         fill="#2DD4BF"
         d="M 114.72 391.23 Q 114.72 393.34 113.92 394.92 Q 113.11 396.49 111.61 397.34 Q 110.10 398.19 108.06 398.19 Q 105.99 398.19 104.49 397.35 Q 102.99 396.51 102.20 394.93 Q 101.41 393.34 101.41 391.23 Q 101.41 388.01 103.17 386.20 Q 104.93 384.38 108.08 384.38 Q 110.13 384.38 111.63 385.20 Q 113.13 386.01 113.93 387.56 Q 114.72 389.12 114.72 391.23 Z M 112.87 391.23 Q 112.87 388.73 111.62 387.30 Q 110.36 385.87 108.08 385.87 Q 105.77 385.87 104.51 387.28 Q 103.26 388.69 103.26 391.23 Q 103.26 393.75 104.53 395.23 Q 105.80 396.71 108.06 396.71 Q 110.38 396.71 111.62 395.28 Q 112.87 393.85 112.87 391.23 Z M 131.30 388.62 Q 131.30 390.53 130.06 391.65 Q 128.82 392.77 126.68 392.77 L 122.74 392.77 L 122.74 398.00 L 120.92 398.00 L 120.92 384.58 L 126.57 384.58 Q 128.83 384.58 130.06 385.64 Q 131.30 386.70 131.30 388.62 Z M 129.47 388.64 Q 129.47 386.04 126.35 386.04 L 122.74 386.04 L 122.74 391.33 L 126.43 391.33 Q 129.47 391.33 129.47 388.64 Z M 137.50 398.00 L 137.50 384.58 L 147.68 384.58 L 147.68 386.07 L 139.32 386.07 L 139.32 390.37 L 147.11 390.37 L 147.11 391.84 L 139.32 391.84 L 139.32 396.51 L 148.07 396.51 L 148.07 398.00 L 137.50 398.00 Z M 162.97 398.00 L 155.79 386.57 L 155.84 387.50 L 155.89 389.09 L 155.89 398.00 L 154.27 398.00 L 154.27 384.58 L 156.38 384.58 L 163.64 396.09 Q 163.53 394.22 163.53 393.38 L 163.53 384.58 L 165.16 384.58 L 165.16 398.00 L 162.97 398.00 Z M 182.59 398.00 L 182.59 384.58 L 184.41 384.58 L 184.41 396.51 L 191.19 396.51 L 191.19 398.00 L 182.59 398.00 Z M 197.59 398.00 L 197.59 384.58 L 199.41 384.58 L 199.41 398.00 L 197.59 398.00 Z M 215.98 394.22 Q 215.98 396.01 214.68 397.01 Q 213.38 398.00 211.05 398.00 L 205.61 398.00 L 205.61 384.58 L 210.48 384.58 Q 215.20 384.58 215.20 387.84 Q 215.20 389.03 214.54 389.84 Q 213.87 390.65 212.65 390.93 Q 214.25 391.12 215.12 392.00 Q 215.98 392.88 215.98 394.22 Z M 213.38 388.06 Q 213.38 386.97 212.63 386.51 Q 211.89 386.04 210.48 386.04 L 207.43 386.04 L 207.43 390.29 L 210.48 390.29 Q 211.94 390.29 212.66 389.74 Q 213.38 389.19 213.38 388.06 Z M 214.15 394.08 Q 214.15 391.71 210.81 391.71 L 207.43 391.71 L 207.43 396.54 L 210.96 396.54 Q 212.62 396.54 213.39 395.93 Q 214.15 395.31 214.15 394.08 Z M 231.67 398.00 L 228.18 392.43 L 224.00 392.43 L 224.00 398.00 L 222.18 398.00 L 222.18 384.58 L 228.50 384.58 Q 230.76 384.58 231.99 385.60 Q 233.23 386.61 233.23 388.42 Q 233.23 389.92 232.36 390.94 Q 231.49 391.95 229.95 392.22 L 233.76 398.00 L 231.67 398.00 Z M 231.40 388.44 Q 231.40 387.27 230.61 386.66 Q 229.81 386.04 228.32 386.04 L 224.00 386.04 L 224.00 390.99 L 228.39 390.99 Q 229.83 390.99 230.61 390.32 Q 231.40 389.65 231.40 388.44 Z M 249.47 398.00 L 247.94 394.08 L 241.83 394.08 L 240.28 398.00 L 238.40 398.00 L 243.87 384.58 L 245.94 384.58 L 251.33 398.00 L 249.47 398.00 Z M 244.89 385.96 L 244.80 386.22 Q 244.56 387.01 244.09 388.25 L 242.38 392.66 L 247.40 392.66 L 245.67 388.23 Q 245.41 387.57 245.14 386.74 L 244.89 385.96 Z M 267.01 398.00 L 263.53 392.43 L 259.35 392.43 L 259.35 398.00 L 257.53 398.00 L 257.53 384.58 L 263.84 384.58 Q 266.11 384.58 267.34 385.60 Q 268.57 386.61 268.57 388.42 Q 268.57 389.92 267.70 390.94 Q 266.83 391.95 265.30 392.22 L 269.11 398.00 L 267.01 398.00 Z M 266.75 388.44 Q 266.75 387.27 265.95 386.66 Q 265.16 386.04 263.66 386.04 L 259.35 386.04 L 259.35 390.99 L 263.74 390.99 Q 265.17 390.99 265.96 390.32 Q 266.75 389.65 266.75 388.44 Z M 281.11 392.44 L 281.11 398.00 L 279.30 398.00 L 279.30 392.44 L 274.14 384.58 L 276.14 384.58 L 280.22 390.97 L 284.29 384.58 L 286.28 384.58 L 281.11 392.44 Z M 312.64 398.00 L 307.28 391.53 L 305.53 392.86 L 305.53 398.00 L 303.71 398.00 L 303.71 384.58 L 305.53 384.58 L 305.53 391.31 L 312.00 384.58 L 314.14 384.58 L 308.43 390.41 L 314.90 398.00 L 312.64 398.00 Z M 330.61 398.00 L 329.08 394.08 L 322.97 394.08 L 321.42 398.00 L 319.54 398.00 L 325.01 384.58 L 327.08 384.58 L 332.47 398.00 L 330.61 398.00 Z M 326.02 385.96 L 325.94 386.22 Q 325.70 387.01 325.23 388.25 L 323.52 392.66 L 328.54 392.66 L 326.81 388.23 Q 326.55 387.57 326.28 386.74 L 326.02 385.96 Z M 349.18 394.30 Q 349.18 396.15 347.73 397.17 Q 346.28 398.19 343.64 398.19 Q 338.73 398.19 337.95 394.78 L 339.72 394.43 Q 340.02 395.64 341.01 396.21 Q 342.00 396.77 343.70 396.77 Q 345.46 396.77 346.42 396.17 Q 347.38 395.56 347.38 394.39 Q 347.38 393.73 347.08 393.33 Q 346.78 392.91 346.24 392.65 Q 345.69 392.38 344.94 392.20 Q 344.19 392.02 343.28 391.81 Q 341.69 391.46 340.86 391.11 Q 340.04 390.75 339.56 390.32 Q 339.09 389.89 338.83 389.31 Q 338.58 388.73 338.58 387.97 Q 338.58 386.25 339.90 385.32 Q 341.22 384.38 343.68 384.38 Q 345.96 384.38 347.17 385.08 Q 348.38 385.79 348.87 387.47 L 347.07 387.78 Q 346.78 386.72 345.95 386.24 Q 345.12 385.75 343.66 385.75 Q 342.05 385.75 341.20 386.29 Q 340.35 386.82 340.35 387.88 Q 340.35 388.50 340.68 388.90 Q 341.01 389.31 341.63 389.59 Q 342.25 389.87 344.09 390.28 Q 344.71 390.42 345.33 390.57 Q 345.94 390.71 346.50 390.92 Q 347.06 391.13 347.55 391.40 Q 348.05 391.68 348.41 392.08 Q 348.77 392.48 348.97 393.02 Q 349.18 393.56 349.18 394.30 Z M 364.45 398.00 L 364.45 391.78 L 357.20 391.78 L 357.20 398.00 L 355.38 398.00 L 355.38 384.58 L 357.20 384.58 L 357.20 390.26 L 364.45 390.26 L 364.45 384.58 L 366.27 384.58 L 366.27 398.00 L 364.45 398.00 Z M 383.88 398.00 L 383.88 389.05 Q 383.88 387.56 383.96 386.19 Q 383.50 387.90 383.13 388.86 L 379.66 398.00 L 378.38 398.00 L 374.87 388.86 L 374.34 387.24 L 374.02 386.19 L 374.05 387.25 L 374.09 389.05 L 374.09 398.00 L 372.47 398.00 L 372.47 384.58 L 374.86 384.58 L 378.43 393.89 Q 378.62 394.45 378.80 395.09 Q 378.97 395.73 379.03 396.02 Q 379.11 395.64 379.35 394.86 Q 379.59 394.09 379.68 393.89 L 383.18 384.58 L 385.51 384.58 L 385.51 398.00 L 383.88 398.00 Z M 391.92 398.00 L 391.92 384.58 L 393.73 384.58 L 393.73 398.00 L 391.92 398.00 Z M 409.42 398.00 L 405.93 392.43 L 401.75 392.43 L 401.75 398.00 L 399.93 398.00 L 399.93 384.58 L 406.25 384.58 Q 408.51 384.58 409.74 385.60 Q 410.98 386.61 410.98 388.42 Q 410.98 389.92 410.11 390.94 Q 409.24 391.95 407.70 392.22 L 411.51 398.00 L 409.42 398.00 Z M 409.15 388.44 Q 409.15 387.27 408.36 386.66 Q 407.56 386.04 406.07 386.04 L 401.75 386.04 L 401.75 390.99 L 406.14 390.99 Q 407.58 390.99 408.36 390.32 Q 409.15 389.65 409.15 388.44 Z"
         id="path24" />
    </g>
    <g
       inkscape:label="hills"
       inkscape:groupmode="layer"
       id="layer_hills">
      <path
         fill="#1F5748"
         d="M 16 470 C 70 424 128 410 180 428 C 236 448 300 420 352 424 C 404 428 460 452 496 470 L 496 512 L 16 512 Z"
         id="path25" />
      <path
         fill="#2E7D5F"
         d="M 16 486 C 80 444 150 438 210 456 C 268 474 330 440 392 448 C 440 454 480 476 500 490 L 500 512 L 16 512 Z"
         id="path26" />
      <path
         fill="#47A377"
         d="M 8 500 C 78 468 160 462 232 476 C 300 490 372 462 432 470 C 468 475 492 488 504 498 L 504 512 L 8 512 Z"
         id="path27" />
      <!-- chinar tree silhouette -->
      <g
         fill="#0F172A"
         id="chinar"
         opacity="0.88"
         transform="translate(352,448)">
        <rect
           x="-2.2"
           y="6"
           width="4.4"
           height="22"
           rx="1.6"
           id="rect27" />
        <path
           d="M 0 -26                  C 5 -25 7 -21 11 -19 C 16 -17 19 -12 17 -7                  C 21 -4 21 2 16 5 C 13 8 8 9 4 8                  C 2 10 -2 10 -4 8 C -9 9 -14 7 -16 4                  C -21 1 -21 -5 -17 -8 C -19 -13 -16 -18 -11 -19                  C -8 -22 -4 -25 0 -26 Z"
           id="path28" />
      </g>
    </g>
  </g>
  <g
     inkscape:label="rings"
     inkscape:groupmode="layer"
     id="layer_rings">
    <circle
       cx="256"
       cy="256"
       r="240"
       fill="none"
       stroke="#14B8A6"
       stroke-width="4"
       id="circle28" />
    <circle
       cx="256"
       cy="256"
       r="230"
       fill="none"
       stroke="#2DD4BF"
       stroke-width="1.2"
       opacity="0.45"
       id="circle29" />
  </g>
  <!-- knowledge spark -->
  <path
     fill="#2DD4BF"
     d="M 256 74 L 260.5 88 L 274 92 L 260.5 96 L 256 110 L 251.5 96 L 238 92 L 251.5 88 Z"
     id="path29" />
  <path
     fill="#2dd4bf"
     d="M 274,61.406795 276.91322,71.20151 285.65289,74 276.91322,76.79849 274,86.593205 271.08677,76.79849 262.3471,74 l 8.73967,-2.79849 z"
     id="path29-6"
     style="stroke-width:0.672996" />
  <path
     fill="#2dd4bf"
     d="M 238,61.406795 240.91322,71.20151 249.65289,74 240.91322,76.79849 238,86.593205 235.08677,76.79849 226.3471,74 l 8.73967,-2.79849 z"
     id="path29-6-5"
     style="stroke-width:0.672996" />
</svg>
