<?xml version="1.0" encoding="UTF-8" standalone="no"?>
<!-- OLK - Open Library Kashmir - primary badge logo (v2) -->

<svg
   width="512"
   height="512"
   viewBox="0 0 512 512"
   version="1.1"
   id="svg41"
   sodipodi:docname="OLK_logo_v2.svg"
   inkscape:version="1.4.4 (dcaf3e7d, 2026-05-05)"
   xmlns:inkscape="http://www.inkscape.org/namespaces/inkscape"
   xmlns:sodipodi="http://sodipodi.sourceforge.net/DTD/sodipodi-0.dtd"
   xmlns:xlink="http://www.w3.org/1999/xlink"
   xmlns="http://www.w3.org/2000/svg"
   xmlns:svg="http://www.w3.org/2000/svg">
  <sodipodi:namedview
     id="namedview41"
     pagecolor="#ffffff"
     bordercolor="#000000"
     borderopacity="0.25"
     inkscape:showpageshadow="2"
     inkscape:pageopacity="0.0"
     inkscape:pagecheckerboard="0"
     inkscape:deskcolor="#d1d1d1"
     inkscape:zoom="1.1894531"
     inkscape:cx="415.73728"
     inkscape:cy="234.98194"
     inkscape:window-width="2048"
     inkscape:window-height="1014"
     inkscape:window-x="0"
     inkscape:window-y="25"
     inkscape:window-maximized="0"
     inkscape:current-layer="layer_mtn"
     showgrid="false" />
  <defs
     id="defs14">
    <inkscape:path-effect
       effect="bspline"
       id="path-effect48"
       is_visible="true"
       lpeversion="1.3"
       weight="33.333333"
       steps="2"
       helper_size="0"
       apply_no_weight="true"
       apply_with_weight="true"
       only_selected="false"
       uniform="false" />
    <linearGradient
       id="linearGradient46"
       inkscape:collect="always">
      <stop
         style="stop-color:#dbdbdb;stop-opacity:1;"
         offset="0"
         id="stop46" />
      <stop
         style="stop-color:#96961a;stop-opacity:0;"
         offset="1"
         id="stop47" />
    </linearGradient>
    <linearGradient
       id="linearGradient43"
       inkscape:collect="always">
      <stop
         style="stop-color:#ffffff;stop-opacity:0.61355805;"
         offset="0"
         id="stop43" />
      <stop
         style="stop-color:#45b4d5;stop-opacity:1;"
         offset="1"
         id="stop44" />
    </linearGradient>
    <radialGradient
       id="bgGrad"
       cx="50%"
       cy="32%"
       r="85%">
      <stop
         offset="0%"
         stop-color="#1E293B"
         id="stop1" />
      <stop
         offset="100%"
         stop-color="#0F172A"
         id="stop2" />
    </radialGradient>
    <linearGradient
       id="coverGrad"
       x1="0"
       y1="0"
       x2="0"
       y2="1">
      <stop
         offset="0"
         stop-color="#14B8A6"
         id="stop3"
         style="stop-color:#12332a;stop-opacity:0.8509804;" />
      <stop
         offset="100%"
         stop-color="#0D9488"
         id="stop4" />
    </linearGradient>
    <!-- lantern light cones -->
    <linearGradient
       id="beamL"
       gradientUnits="userSpaceOnUse"
       x1="146"
       y1="124"
       x2="215"
       y2="225">
      <stop
         offset="0%"
         stop-color="#FCD34D"
         stop-opacity="0.42"
         id="stop5" />
      <stop
         offset="100%"
         stop-color="#FCD34D"
         stop-opacity="0.04"
         id="stop6" />
    </linearGradient>
    <linearGradient
       id="beamR"
       gradientUnits="userSpaceOnUse"
       x1="366"
       y1="124"
       x2="297"
       y2="225">
      <stop
         offset="0%"
         stop-color="#FCD34D"
         stop-opacity="0.42"
         id="stop7" />
      <stop
         offset="100%"
         stop-color="#FCD34D"
         stop-opacity="0.04"
         id="stop8" />
    </linearGradient>
    <!-- warm wash on the pages, strongest at the top edge where light lands -->
    <linearGradient
       id="pageGlow"
       x1="0"
       y1="0"
       x2="0"
       y2="1">
      <stop
         offset="0%"
         stop-color="#FEF3C7"
         stop-opacity="0.55"
         id="stop9" />
      <stop
         offset="100%"
         stop-color="#FEF3C7"
         stop-opacity="0.06"
         id="stop10" />
    </linearGradient>
    <radialGradient
       id="bookHalo"
       cx="50%"
       cy="50%"
       r="50%">
      <stop
         offset="0%"
         stop-color="#FCD34D"
         stop-opacity="0.16"
         id="stop11" />
      <stop
         offset="100%"
         stop-color="#FCD34D"
         stop-opacity="0"
         id="stop12" />
    </radialGradient>
    <radialGradient
       id="lampHalo"
       cx="50%"
       cy="50%"
       r="50%">
      <stop
         offset="0%"
         stop-color="#FCD34D"
         stop-opacity="0.5"
         id="stop13" />
      <stop
         offset="100%"
         stop-color="#FCD34D"
         stop-opacity="0"
         id="stop14" />
    </radialGradient>
    <clipPath
       id="badgeClip">
      <circle
         cx="256"
         cy="256"
         r="240"
         id="circle14" />
    </clipPath>
    <linearGradient
       inkscape:collect="always"
       xlink:href="#linearGradient43"
       id="linearGradient44"
       x1="213.62981"
       y1="15.706957"
       x2="298.37012"
       y2="496.29309"
       gradientUnits="userSpaceOnUse" />
    <linearGradient
       inkscape:collect="always"
       xlink:href="#linearGradient46"
       id="linearGradient47"
       x1="17.29265"
       y1="226.69043"
       x2="494.70737"
       y2="285.30957"
       gradientUnits="userSpaceOnUse" />
  </defs>
  <g
     inkscape:label="badge"
     inkscape:groupmode="layer"
     id="layer_badge"
     style="display:inline;fill:url(#linearGradient44)">
    <circle
       cx="256"
       cy="256"
       r="240"
       fill="url(#bgGrad)"
       id="circle16"
       style="display:none;fill:url(#linearGradient44);stroke:url(#linearGradient47)" />
  </g>
  <g
     clip-path="url(#badgeClip)"
     id="clipped_art"
     style="display:inline">
    <g
       inkscape:label="mountains"
       inkscape:groupmode="layer"
       id="layer_mtn"
       transform="translate(0,-36)"
       style="display:inline">
      <path
         fill="#334155"
         opacity="0.85"
         d="m 58.738916,218.25616 68.000004,-93.04434 32.4335,51.30356 56.08867,-34.34821 31.18555,53.44597 52.9491,-36.69201 30.14778,33.80998 81.1954,-63.29 40,88.81505 z"
         id="path16"
         style="display:inline;fill:#12322a;fill-opacity:1;stroke-width:1.02826"
         sodipodi:nodetypes="cccccccccc" />
      <path
         fill="#e2e8f0"
         opacity="0.9"
         d="m 215.05091,141.03777 19.31817,31.15218 -13.63016,-5.26055 -7.68801,7.10837 -9.73892,-3.38259 -11.93596,2.37602 z"
         id="path17"
         sodipodi:nodetypes="ccccccc"
         style="display:inline" />
      <path
         fill="#e2e8f0"
         opacity="0.9"
         d="m 299.18555,156.88342 25.57307,26.95567 -15.57307,-0.95567 -3.64368,3.27423 -6.58621,-12.15929 -17.29884,8.99343 z"
         id="path18"
         style="display:inline"
         sodipodi:nodetypes="ccccccc" />
      <path
         fill="#e2e8f0"
         opacity="0.75"
         d="m 126.73892,125.21182 16.0079,20.81565 -11.79134,-3.88359 -1.49078,12.79372 -15.04434,1.72578 z"
         id="path19"
         sodipodi:nodetypes="cccccc"
         style="display:inline" />
      <path
         fill="#e2e8f0"
         opacity="0.75"
         d="m 410.84401,129.00165 10.55367,22.1627 -10.55367,-6.6765 -6.96931,18.17554 -12.93462,-4.64857 z"
         id="path20"
         sodipodi:nodetypes="cccccc"
         style="display:inline" />
    </g>
    <g
       inkscape:label="lamplight"
       inkscape:groupmode="layer"
       id="layer_light"
       style="display:none">
      <!-- soft halo behind the whole book -->
      <ellipse
         cx="256"
         cy="226"
         rx="150"
         ry="80"
         fill="url(#bookHalo)"
         id="ellipse20"
         style="display:none" />
      <!-- beams from the two lanterns onto the pages -->
      <path
         fill="url(#beamL)"
         d="m 139,120 h 14 l 97,120 -88,14 z"
         id="path21"
         style="display:none" />
      <path
         fill="url(#beamR)"
         d="m 359,120 h 14 l -23,134 -88,-14 z"
         id="path22"
         style="display:none" />
    </g>
    <g
       inkscape:label="book"
       inkscape:groupmode="layer"
       id="layer_book"
       transform="matrix(1.09,0,0,1.09,-23.04,-20.52)"
       style="display:inline">
      <!-- cover -->
      <path
         fill="url(#coverGrad)"
         d="m 152,200 c 34,-14 74,-14 104,2 30,-16 70,-16 104,-2 v 58 c -34,-14 -74,-14 -104,2 -30,-16 -70,-16 -104,-2 z"
         id="path23"
         style="display:inline" />
      <!-- left page -->
      <path
         fill="#f8fafc"
         d="m 162,202 c 30,-12 66,-11 90,4 v 44 c -24,-14 -60,-15 -90,-4 z"
         id="path24"
         style="display:inline" />
      <!-- right page -->
      <path
         fill="#f8fafc"
         d="m 350,202 c -30,-12 -66,-11 -90,4 v 44 c 24,-14 60,-15 90,-4 z"
         id="path25"
         style="display:inline" />
      <!-- page rules -->
      <g
         stroke="#0d9488"
         stroke-width="2.4"
         stroke-linecap="round"
         opacity="0.55"
         fill="none"
         id="g31">
        <path
           d="m 174,210 c 22,-8 48,-7 68,3"
           id="path26"
           style="display:inline" />
        <path
           d="m 174,222 c 22,-8 48,-7 68,3"
           id="path27"
           style="display:inline" />
        <path
           d="m 174,234 c 22,-8 48,-7 68,3"
           id="path28"
           style="display:inline" />
        <path
           d="m 338,210 c -22,-8 -48,-7 -68,3"
           id="path29" />
        <path
           d="m 338,222 c -22,-8 -48,-7 -68,3"
           id="path30" />
        <path
           d="m 338,234 c -22,-8 -48,-7 -68,3"
           id="path31"
           inkscape:label="path31"
           style="display:inline" />
      </g>
      <!-- warm light washing over both pages -->
      <path
         fill="url(#pageGlow)"
         d="m 162,202 c 30,-12 66,-11 90,4 v 44 c -24,-14 -60,-15 -90,-4 z"
         id="path32"
         style="display:none" />
      <path
         fill="url(#pageGlow)"
         d="m 350,202 c -30,-12 -66,-11 -90,4 v 44 c 24,-14 60,-15 90,-4 z"
         id="path33"
         style="display:none" />
      <!-- spine -->
      <path
         fill="#0d9488"
         d="m 252,204 c 2,-2 6,-2 8,0 v 48 c -2,-2 -6,-2 -8,0 z"
         id="path34"
         style="display:none" />
    </g>
    <g
       inkscape:label="hills"
       inkscape:groupmode="layer"
       id="layer_hills"
       style="display:inline">
      <path
         fill="#1f5748"
         d="m -31.158773,465.25211 c 58.291848,-60.05098 37.8067125,-90.92939 91.083643,-45.34336 89.92514,51.53087 294.66289,-27.2039 400.14003,-4.60519 l 20.10068,105.01916 -357.47214,-9.24795 z"
         id="path35"
         style="display:inline;stroke-width:1.0989"
         sodipodi:nodetypes="cccccc" />
      <path
         fill="#2e7d5f"
         d="m 136.24644,481.07857 c 76,-44 81.58376,-50.70487 171.58376,-40.70487 C 391.8302,449.3737 434,446 500,476 v 36 H 12 Z"
         id="path36"
         style="display:inline"
         sodipodi:nodetypes="cccccc" />
      <path
         fill="#47a377"
         d="m 8,498 c 80,-34 144.54772,-65.4013 247.94902,-31.0276 59.35455,24.4565 37.15908,21.99578 107.15908,51.99578 L 504,512 H 8 Z"
         id="path37"
         style="display:inline"
         sodipodi:nodetypes="cccccc" />
    </g>
    <g
       inkscape:label="wordmark"
       inkscape:groupmode="layer"
       id="layer_word"
       style="display:inline">
      <text
         x="251.24414"
         y="383.66885"
         text-anchor="middle"
         font-family="'Liberation Serif', 'Nimbus Roman', 'Times New Roman', serif"
         font-weight="bold"
         font-size="108px"
         letter-spacing="4"
         fill="#f8fafc"
         id="text_olk"
         style="display:inline;fill:#12332a;fill-opacity:0.85098;stroke:none;stroke-width:1.75748;stroke-dasharray:none;stroke-opacity:1">OLK</text>
      <text
         text-anchor="middle"
         font-family="'Liberation Sans', 'Nimbus Sans', Arial, sans-serif"
         font-weight="normal"
         font-size="19.5px"
         letter-spacing="4.6"
         fill="#2dd4bf"
         id="text_tagline"
         style="display:inline;fill:#2dd4bf;fill-opacity:1;stroke:#9cca80;stroke-width:0.245669;stroke-dasharray:none;stroke-opacity:1"
         x="260.82654"
         y="291.23633">OPEN LIBRARY KASHMIR</text>
    </g>
  </g>
  <g
     inkscape:label="rings"
     inkscape:groupmode="layer"
     id="layer_rings"
     style="display:inline">
    <circle
       cx="256"
       cy="256"
       r="240"
       fill="none"
       stroke="#14b8a6"
       stroke-width="4"
       id="circle28"
       style="display:inline;stroke-width:7.40031;stroke-dasharray:none;stroke:#12332a;stroke-opacity:0.8509804" />
  </g>
  <g
     inkscape:label="lanterns"
     inkscape:groupmode="layer"
     id="layer_lanterns"
     style="display:inline">
    <!-- left lantern -->
    <g
       id="lantern_left"
       transform="translate(146,106)"
       style="display:none">
      <circle
         cx="0"
         cy="8"
         r="17"
         fill="url(#lampHalo)"
         id="circle37" />
      <line
         x1="0"
         y1="-14"
         x2="0"
         y2="-7"
         stroke="#0d9488"
         stroke-width="1.6"
         id="line37" />
      <path
         d="m -5,-7 q 5,-4 10,0 v 2 H -5 Z"
         fill="#0d9488"
         id="path38" />
      <path
         d="M -6,-5 Q -8,4 0,12 8,4 6,-5 Z"
         fill="#fcd34d"
         id="path39" />
      <ellipse
         cx="0"
         cy="2"
         rx="3"
         ry="4.5"
         fill="#fef3c7"
         id="ellipse39" />
      <rect
         x="-3.4000001"
         y="11"
         width="6.8000002"
         height="2.5999999"
         rx="1.3"
         fill="#0d9488"
         id="rect39" />
    </g>
    <!-- right lantern -->
    <g
       id="lantern_right"
       transform="translate(366,106)"
       style="display:none">
      <circle
         cx="0"
         cy="8"
         r="17"
         fill="url(#lampHalo)"
         id="circle39"
         style="display:inline" />
      <line
         x1="0"
         y1="-14"
         x2="0"
         y2="-7"
         stroke="#0d9488"
         stroke-width="1.6"
         id="line39"
         style="display:none" />
      <path
         d="m -5,-7 q 5,-4 10,0 v 2 H -5 Z"
         fill="#0d9488"
         id="path40"
         style="display:inline" />
      <path
         d="M -6,-5 Q -8,4 0,12 8,4 6,-5 Z"
         fill="#fcd34d"
         id="path41"
         style="display:inline" />
      <ellipse
         cx="0"
         cy="2"
         rx="3"
         ry="4.5"
         fill="#fef3c7"
         id="ellipse41"
         style="display:inline" />
      <rect
         x="-3.4000001"
         y="11"
         width="6.8000002"
         height="2.5999999"
         rx="1.3"
         fill="#0d9488"
         id="rect41"
         style="display:inline" />
    </g>
    <!-- knowledge spark -->
  </g>
</svg>
