<?xml version="1.0" encoding="UTF-8" standalone="no"?>
<!-- OLK - Open Library Kashmir - primary badge logo -->

<svg
   width="512"
   height="512"
   viewBox="0 0 512 512"
   version="1.1"
   id="svg29"
   sodipodi:docname="OLK_logo.svg"
   inkscape:version="1.4.4 (dcaf3e7d, 2026-05-05)"
   xmlns:inkscape="http://www.inkscape.org/namespaces/inkscape"
   xmlns:sodipodi="http://sodipodi.sourceforge.net/DTD/sodipodi-0.dtd"
   xmlns="http://www.w3.org/2000/svg"
   xmlns:svg="http://www.w3.org/2000/svg">
  <sodipodi:namedview
     id="namedview29"
     pagecolor="#ffffff"
     bordercolor="#000000"
     borderopacity="0.25"
     inkscape:showpageshadow="2"
     inkscape:pageopacity="0.0"
     inkscape:pagecheckerboard="0"
     inkscape:deskcolor="#d1d1d1"
     inkscape:zoom="1.4142136"
     inkscape:cx="334.10795"
     inkscape:cy="261.27596"
     inkscape:window-width="2048"
     inkscape:window-height="1152"
     inkscape:window-x="0"
     inkscape:window-y="0"
     inkscape:window-maximized="0"
     inkscape:current-layer="layer_hills" />
  <defs
     id="defs6">
    <radialGradient
       id="bgGrad"
       cx="50%"
       cy="32%"
       r="85%">
      <stop
         offset="0"
         stop-color="#1E293B"
         id="stop1"
         style="stop-color:#b3d2db;stop-opacity:1;" />
      <stop
         offset="100%"
         stop-color="#0F172A"
         id="stop2" />
    </radialGradient>
    <linearGradient
       id="coverGrad"
       x1="0"
       y1="0"
       x2="0"
       y2="1">
      <stop
         offset="0%"
         stop-color="#14B8A6"
         id="stop3" />
      <stop
         offset="100%"
         stop-color="#0D9488"
         id="stop4" />
    </linearGradient>
    <linearGradient
       id="baseFade"
       x1="0"
       y1="0"
       x2="0"
       y2="1">
      <stop
         offset="0%"
         stop-color="#0F172A"
         stop-opacity="0"
         id="stop5" />
      <stop
         offset="100%"
         stop-color="#0F172A"
         stop-opacity="0.85"
         id="stop6" />
    </linearGradient>
    <clipPath
       id="badgeClip">
      <circle
         cx="256"
         cy="256"
         r="240"
         id="circle6" />
    </clipPath>
    <inkscape:path-effect
       effect="bspline"
       id="path-effect48"
       is_visible="true"
       lpeversion="1.3"
       weight="33.333333"
       steps="2"
       helper_size="0"
       apply_no_weight="true"
       apply_with_weight="true"
       only_selected="false"
       uniform="false" />
    <radialGradient
       id="bookHalo"
       cx="186.95597"
       cy="309.46324"
       r="109.54451"
       gradientTransform="matrix(1.3693064,0,0,0.73029674,399,243.70015)"
       fx="186.95597"
       fy="309.46324"
       gradientUnits="userSpaceOnUse">
      <stop
         offset="0%"
         stop-color="#FCD34D"
         stop-opacity="0.16"
         id="stop11" />
      <stop
         offset="100%"
         stop-color="#FCD34D"
         stop-opacity="0"
         id="stop12" />
    </radialGradient>
    <linearGradient
       id="beamL"
       gradientUnits="userSpaceOnUse"
       x1="146"
       y1="124"
       x2="215"
       y2="225"
       gradientTransform="translate(399,243.70015)">
      <stop
         offset="0%"
         stop-color="#FCD34D"
         stop-opacity="0.42"
         id="stop5-8" />
      <stop
         offset="100%"
         stop-color="#FCD34D"
         stop-opacity="0.04"
         id="stop6-0" />
    </linearGradient>
    <linearGradient
       id="beamR"
       gradientUnits="userSpaceOnUse"
       x1="366"
       y1="124"
       x2="297"
       y2="225"
       gradientTransform="translate(399,243.70015)">
      <stop
         offset="0%"
         stop-color="#FCD34D"
         stop-opacity="0.42"
         id="stop7" />
      <stop
         offset="100%"
         stop-color="#FCD34D"
         stop-opacity="0.04"
         id="stop8" />
    </linearGradient>
    <linearGradient
       id="coverGrad-2"
       x1="88.343327"
       y1="326.45475"
       x2="88.343327"
       y2="447.34562"
       gradientTransform="matrix(1.8754105,0,0,0.63351465,375.96,223.18016)"
       gradientUnits="userSpaceOnUse">
      <stop
         offset="0%"
         stop-color="#14B8A6"
         id="stop3-4" />
      <stop
         offset="100%"
         stop-color="#0D9488"
         id="stop4-8" />
    </linearGradient>
    <linearGradient
       id="pageGlow"
       x1="0"
       y1="0"
       x2="0"
       y2="1">
      <stop
         offset="0%"
         stop-color="#FEF3C7"
         stop-opacity="0.55"
         id="stop9" />
      <stop
         offset="100%"
         stop-color="#FEF3C7"
         stop-opacity="0.06"
         id="stop10" />
    </linearGradient>
    <radialGradient
       id="lampHalo"
       cx="0.5"
       cy="0.5"
       r="0.5">
      <stop
         offset="0%"
         stop-color="#FCD34D"
         stop-opacity="0.5"
         id="stop13" />
      <stop
         offset="100%"
         stop-color="#FCD34D"
         stop-opacity="0"
         id="stop14" />
    </radialGradient>
    <radialGradient
       id="radialGradient16"
       cx="0.5"
       cy="0.5"
       r="0.5">
      <stop
         offset="0%"
         stop-color="#FCD34D"
         stop-opacity="0.5"
         id="stop15" />
      <stop
         offset="100%"
         stop-color="#FCD34D"
         stop-opacity="0"
         id="stop16" />
    </radialGradient>
  </defs>
  <g
     inkscape:label="badge"
     inkscape:groupmode="layer"
     id="layer_badge"
     style="display:inline">
    <circle
       cx="256"
       cy="256"
       r="240"
       fill="url(#bgGrad)"
       id="circle8"
       style="display:inline;stroke-width:1.00157;stroke-dasharray:none" />
  </g>
  <g
     clip-path="url(#badgeClip)"
     id="g28"
     style="display:inline">
    <g
       inkscape:label="mountains"
       inkscape:groupmode="layer"
       id="layer_mtn">
      <!-- back range -->
      <path
         fill="#334155"
         opacity="0.85"
         d="m 60,246 68,-88 40,46 46,-72 48,64 54,-78 56,82 40,-38 40,84 z"
         id="path8"
         style="display:inline" />
      <!-- snow caps back -->
      <path
         fill="#e2e8f0"
         opacity="0.9"
         d="M 214,132 234.7375,159.65 222,156 l -10,9 -11,-12 -5,7 z"
         id="path9"
         sodipodi:nodetypes="ccccccc"
         style="display:inline" />
      <path
         fill="#e2e8f0"
         opacity="0.9"
         d="M 316,118 337.85747,150.00559 326,144 l -11,10 -11,-13 -7.2337,4.78202 z"
         id="path10"
         sodipodi:nodetypes="ccccccc"
         style="display:inline" />
      <path
         fill="#e2e8f0"
         opacity="0.75"
         d="M 128,158 144.54391,177.0255 134,173 l -10,8 -9.93166,-4.97079 z"
         id="path11"
         sodipodi:nodetypes="cccccc"
         style="display:inline" />
      <path
         fill="#e2e8f0"
         opacity="0.75"
         d="m 412,162 8.86459,18.61564 -6.77353,-3.88882 L 408,184 396.49808,176.72682 Z"
         id="path12"
         sodipodi:nodetypes="cccccc"
         style="display:inline" />
      <!-- soft fade at the mountain base -->
      <rect
         x="40"
         y="206"
         width="432"
         height="46"
         fill="url(#baseFade)"
         id="rect12"
         style="display:none" />
    </g>
    <g
       inkscape:label="book"
       inkscape:groupmode="layer"
       id="layer_book"
       transform="matrix(1.09,0,0,1.09,-23.04,-20.52)">
      <!-- cover -->
      <path
         fill="url(#coverGrad)"
         d="m 152,200 c 34,-14 74,-14 104,2 30,-16 70,-16 104,-2 v 58 c -34,-14 -74,-14 -104,2 -30,-16 -70,-16 -104,-2 z"
         id="path13"
         style="display:inline" />
      <!-- left page -->
      <path
         fill="#f8fafc"
         d="m 162,202 c 30,-12 66,-11 90,4 v 44 c -24,-14 -60,-15 -90,-4 z"
         id="path14"
         style="display:inline" />
      <!-- right page -->
      <path
         fill="#f8fafc"
         d="m 350,202 c -30,-12 -66,-11 -90,4 v 44 c 24,-14 60,-15 90,-4 z"
         id="path15"
         style="display:inline" />
      <!-- page rules, left -->
      <g
         stroke="#0d9488"
         stroke-width="2.4"
         stroke-linecap="round"
         opacity="0.55"
         fill="none"
         id="g21"
         style="display:inline">
        <path
           d="m 174,210 c 22,-8 48,-7 68,3"
           id="path16"
           style="display:inline" />
        <path
           d="m 174,222 c 22,-8 48,-7 68,3"
           id="path17" />
        <path
           d="m 174,234 c 22,-8 48,-7 68,3"
           id="path18" />
        <path
           d="m 338,210 c -22,-8 -48,-7 -68,3"
           id="path19" />
        <path
           d="m 338,222 c -22,-8 -48,-7 -68,3"
           id="path20" />
        <path
           d="m 338,234 c -22,-8 -48,-7 -68,3"
           id="path21"
           style="display:inline" />
      </g>
      <!-- spine -->
      <path
         fill="#0d9488"
         d="m 252,204 c 2,-2 6,-2 8,0 v 48 c -2,-2 -6,-2 -8,0 z"
         id="path22"
         style="display:none" />
    </g>
    <g
       inkscape:label="wordmark"
       inkscape:groupmode="layer"
       id="layer_word"
       style="display:inline">
      <path
         fill="#f8fafc"
         d="m 160.08,330.56 q 0,16.83 4.61,24.03 4.62,7.19 14.65,7.19 9.95,0 14.56,-7.22 4.62,-7.22 4.62,-24 0,-16.72 -4.62,-23.72 -4.61,-7.02 -14.56,-7.02 -10.03,0 -14.65,7.02 -4.61,7 -4.61,23.72 z m -17.5,0 q 0,-36.08 36.76,-36.08 18.14,0 27.42,9.17 9.28,9.14 9.28,26.91 0,17.99 -9.4,27.26 -9.38,9.24 -27.3,9.24 -17.89,0 -27.32,-9.23 -9.44,-9.23 -9.44,-27.27 z m 115.9,-31.44 -10.92,1.39 v 59.9 h 14.4 q 11.24,0 16.52,-1.06 l 4.32,-14.71 h 4.74 L 285.53,366 h -63.65 v -3.85 l 9.08,-1.43 v -60.21 l -9.01,-1.39 v -3.84 h 36.53 z m 110.53,-3.84 v 3.84 l -8.65,1.39 -23.36,20.62 31.12,39.59 6.58,1.43 V 366 h -23.1 l -26.41,-34.07 -6.13,5.28 v 23.51 l 10.18,1.43 V 366 h -35.86 v -3.85 l 9.08,-1.43 v -60.21 l -9.08,-1.39 v -3.84 h 34.81 v 3.84 l -9.13,1.39 v 28.79 l 32.23,-28.79 -6.49,-1.39 v -3.84 z"
         id="path23"
         style="display:inline" />
      <path
         fill="#2dd4bf"
         d="m 114.72,391.23 q 0,2.11 -0.8,3.69 -0.81,1.57 -2.31,2.42 -1.51,0.85 -3.55,0.85 -2.07,0 -3.57,-0.84 -1.5,-0.84 -2.29,-2.42 -0.79,-1.59 -0.79,-3.7 0,-3.22 1.76,-5.03 1.76,-1.82 4.91,-1.82 2.05,0 3.55,0.82 1.5,0.81 2.3,2.36 0.79,1.56 0.79,3.67 z m -1.85,0 q 0,-2.5 -1.25,-3.93 -1.26,-1.43 -3.54,-1.43 -2.31,0 -3.57,1.41 -1.25,1.41 -1.25,3.95 0,2.52 1.27,4 1.27,1.48 3.53,1.48 2.32,0 3.56,-1.43 1.25,-1.43 1.25,-4.05 z m 18.43,-2.61 q 0,1.91 -1.24,3.03 -1.24,1.12 -3.38,1.12 h -3.94 V 398 h -1.82 v -13.42 h 5.65 q 2.26,0 3.49,1.06 1.24,1.06 1.24,2.98 z m -1.83,0.02 q 0,-2.6 -3.12,-2.6 h -3.61 v 5.29 h 3.69 q 3.04,0 3.04,-2.69 z m 8.03,9.36 v -13.42 h 10.18 v 1.49 h -8.36 v 4.3 h 7.79 v 1.47 h -7.79 v 4.67 h 8.75 V 398 Z m 25.47,0 -7.18,-11.43 0.05,0.93 0.05,1.59 V 398 h -1.62 v -13.42 h 2.11 l 7.26,11.51 q -0.11,-1.87 -0.11,-2.71 v -8.8 h 1.63 V 398 Z m 19.62,0 v -13.42 h 1.82 v 11.93 h 6.78 V 398 Z m 15,0 v -13.42 h 1.82 V 398 Z m 18.39,-3.78 q 0,1.79 -1.3,2.79 -1.3,0.99 -3.63,0.99 h -5.44 v -13.42 h 4.87 q 4.72,0 4.72,3.26 0,1.19 -0.66,2 -0.67,0.81 -1.89,1.09 1.6,0.19 2.47,1.07 0.86,0.88 0.86,2.22 z m -2.6,-6.16 q 0,-1.09 -0.75,-1.55 -0.74,-0.47 -2.15,-0.47 h -3.05 v 4.25 h 3.05 q 1.46,0 2.18,-0.55 0.72,-0.55 0.72,-1.68 z m 0.77,6.02 q 0,-2.37 -3.34,-2.37 h -3.38 v 4.83 h 3.53 q 1.66,0 2.43,-0.61 0.76,-0.62 0.76,-1.85 z m 17.52,3.92 -3.49,-5.57 H 224 V 398 h -1.82 v -13.42 h 6.32 q 2.26,0 3.49,1.02 1.24,1.01 1.24,2.82 0,1.5 -0.87,2.52 -0.87,1.01 -2.41,1.28 l 3.81,5.78 z m -0.27,-9.56 q 0,-1.17 -0.79,-1.78 -0.8,-0.62 -2.29,-0.62 H 224 v 4.95 h 4.39 q 1.44,0 2.22,-0.67 0.79,-0.67 0.79,-1.88 z m 18.07,9.56 -1.53,-3.92 h -6.11 l -1.55,3.92 h -1.88 l 5.47,-13.42 h 2.07 l 5.39,13.42 z m -4.58,-12.04 -0.09,0.26 q -0.24,0.79 -0.71,2.03 l -1.71,4.41 h 5.02 l -1.73,-4.43 q -0.26,-0.66 -0.53,-1.49 z m 22.12,12.04 -3.48,-5.57 h -4.18 V 398 h -1.82 v -13.42 h 6.31 q 2.27,0 3.5,1.02 1.23,1.01 1.23,2.82 0,1.5 -0.87,2.52 -0.87,1.01 -2.4,1.28 l 3.81,5.78 z m -0.26,-9.56 q 0,-1.17 -0.8,-1.78 -0.79,-0.62 -2.29,-0.62 h -4.31 v 4.95 h 4.39 q 1.43,0 2.22,-0.67 0.79,-0.67 0.79,-1.88 z m 14.36,4 V 398 h -1.81 v -5.56 l -5.16,-7.86 h 2 l 4.08,6.39 4.07,-6.39 h 1.99 z m 31.53,5.56 -5.36,-6.47 -1.75,1.33 V 398 h -1.82 v -13.42 h 1.82 v 6.73 l 6.47,-6.73 h 2.14 l -5.71,5.83 6.47,7.59 z m 17.97,0 -1.53,-3.92 h -6.11 l -1.55,3.92 h -1.88 l 5.47,-13.42 h 2.07 l 5.39,13.42 z m -4.59,-12.04 -0.08,0.26 q -0.24,0.79 -0.71,2.03 l -1.71,4.41 h 5.02 l -1.73,-4.43 q -0.26,-0.66 -0.53,-1.49 z m 23.16,8.34 q 0,1.85 -1.45,2.87 -1.45,1.02 -4.09,1.02 -4.91,0 -5.69,-3.41 l 1.77,-0.35 q 0.3,1.21 1.29,1.78 0.99,0.56 2.69,0.56 1.76,0 2.72,-0.6 0.96,-0.61 0.96,-1.78 0,-0.66 -0.3,-1.06 -0.3,-0.42 -0.84,-0.68 -0.55,-0.27 -1.3,-0.45 -0.75,-0.18 -1.66,-0.39 -1.59,-0.35 -2.42,-0.7 -0.82,-0.36 -1.3,-0.79 -0.47,-0.43 -0.73,-1.01 -0.25,-0.58 -0.25,-1.34 0,-1.72 1.32,-2.65 1.32,-0.94 3.78,-0.94 2.28,0 3.49,0.7 1.21,0.71 1.7,2.39 l -1.8,0.31 q -0.29,-1.06 -1.12,-1.54 -0.83,-0.49 -2.29,-0.49 -1.61,0 -2.46,0.54 -0.85,0.53 -0.85,1.59 0,0.62 0.33,1.02 0.33,0.41 0.95,0.69 0.62,0.28 2.46,0.69 0.62,0.14 1.24,0.29 0.61,0.14 1.17,0.35 0.56,0.21 1.05,0.48 0.5,0.28 0.86,0.68 0.36,0.4 0.56,0.94 0.21,0.54 0.21,1.28 z m 15.27,3.7 v -6.22 H 357.2 V 398 h -1.82 v -13.42 h 1.82 v 5.68 h 7.25 v -5.68 h 1.82 V 398 Z m 19.43,0 v -8.95 q 0,-1.49 0.08,-2.86 -0.46,1.71 -0.83,2.67 l -3.47,9.14 h -1.28 l -3.51,-9.14 -0.53,-1.62 -0.32,-1.05 0.03,1.06 0.04,1.8 V 398 h -1.62 v -13.42 h 2.39 l 3.57,9.31 q 0.19,0.56 0.37,1.2 0.17,0.64 0.23,0.93 0.08,-0.38 0.32,-1.16 0.24,-0.77 0.33,-0.97 l 3.5,-9.31 h 2.33 V 398 Z m 8.04,0 v -13.42 h 1.81 V 398 Z m 17.5,0 -3.49,-5.57 h -4.18 V 398 h -1.82 v -13.42 h 6.32 q 2.26,0 3.49,1.02 1.24,1.01 1.24,2.82 0,1.5 -0.87,2.52 -0.87,1.01 -2.41,1.28 l 3.81,5.78 z m -0.27,-9.56 q 0,-1.17 -0.79,-1.78 -0.8,-0.62 -2.29,-0.62 h -4.32 v 4.95 h 4.39 q 1.44,0 2.22,-0.67 0.79,-0.67 0.79,-1.88 z"
         id="path24"
         style="display:inline" />
    </g>
    <g
       inkscape:label="hills"
       inkscape:groupmode="layer"
       id="layer_hills"
       style="display:inline">
      <path
         fill="#1f5748"
         d="m 16,470 c 54,-46 112,-60 164,-42 56,20 120,-8 172,-4 52,4 108,28 144,46 v 42 H 16 Z"
         id="path25"
         style="display:inline" />
      <path
         fill="#2e7d5f"
         d="m 16,486 c 64,-42 134,-48 194,-30 58,18 120,-16 182,-8 48,6 88,28 108,42 v 22 H 16 Z"
         id="path26"
         style="display:inline" />
      <path
         fill="#47a377"
         d="m 8,500 c 70,-32 152,-38 224,-24 68,14 140,-14 200,-6 36,5 60,18 72,28 v 14 H 8 Z"
         id="path27"
         style="display:inline" />
      <!-- chinar tree silhouette -->
      <g
         fill="#0f172a"
         id="chinar"
         opacity="0.88"
         transform="translate(352,448)"
         style="display:none">
        <rect
           x="-2.2"
           y="6"
           width="4.4000001"
           height="22"
           rx="1.6"
           id="rect27" />
        <path
           d="m 0,-26 c 5,1 7,5 11,7 5,2 8,7 6,12 4,3 4,9 -1,12 -3,3 -8,4 -12,3 -2,2 -6,2 -8,0 -5,1 -10,-1 -12,-4 -5,-3 -5,-9 -1,-12 -2,-5 1,-10 6,-11 3,-3 7,-6 11,-7 z"
           id="path28" />
      </g>
    </g>
  </g>
  <g
     inkscape:label="rings"
     inkscape:groupmode="layer"
     id="layer_rings">
    <circle
       cx="256"
       cy="256"
       r="240"
       fill="none"
       stroke="#14b8a6"
       stroke-width="4"
       id="circle28"
       style="display:inline;stroke-width:10.6696;stroke-dasharray:none" />
    <circle
       cx="256"
       cy="256"
       r="230"
       fill="none"
       stroke="#2dd4bf"
       stroke-width="1.2"
       opacity="0.45"
       id="circle29"
       style="display:inline" />
  </g>
  <!-- knowledge spark -->
</svg>
