<?xml version="1.0" encoding="UTF-8" standalone="no"?>
<!-- OLK - Open Library Kashmir - primary badge logo (v2) -->

<svg
   width="512"
   height="512"
   viewBox="0 0 512 512"
   version="1.1"
   id="svg41"
   sodipodi:docname="OLK_logo_3.svg"
   inkscape:version="1.4.3 (0d15f75042, 2025-12-25)"
   xmlns:inkscape="http://www.inkscape.org/namespaces/inkscape"
   xmlns:sodipodi="http://sodipodi.sourceforge.net/DTD/sodipodi-0.dtd"
   xmlns:xlink="http://www.w3.org/1999/xlink"
   xmlns="http://www.w3.org/2000/svg"
   xmlns:svg="http://www.w3.org/2000/svg">
  <sodipodi:namedview
     id="namedview41"
     pagecolor="#ffffff"
     bordercolor="#000000"
     borderopacity="0.25"
     inkscape:showpageshadow="2"
     inkscape:pageopacity="0.0"
     inkscape:pagecheckerboard="0"
     inkscape:deskcolor="#d1d1d1"
     inkscape:zoom="1"
     inkscape:cx="247.99999"
     inkscape:cy="262.49999"
     inkscape:window-width="1453"
     inkscape:window-height="883"
     inkscape:window-x="0"
     inkscape:window-y="0"
     inkscape:window-maximized="1"
     inkscape:current-layer="layer_word"
     showgrid="false" />
  <defs
     id="defs14">
    <inkscape:path-effect
       effect="bspline"
       id="path-effect48"
       is_visible="true"
       lpeversion="1.3"
       weight="33.333333"
       steps="2"
       helper_size="0"
       apply_no_weight="true"
       apply_with_weight="true"
       only_selected="false"
       uniform="false" />
    <radialGradient
       id="bgGrad"
       cx="50%"
       cy="32%"
       r="85%">
      <stop
         offset="0%"
         stop-color="#1E293B"
         id="stop1" />
      <stop
         offset="100%"
         stop-color="#0F172A"
         id="stop2" />
    </radialGradient>
    <linearGradient
       id="coverGrad"
       x1="88.343327"
       y1="326.45475"
       x2="88.343327"
       y2="447.34562"
       gradientTransform="matrix(1.7205601,0,0,0.5812061,0,9.174312)"
       gradientUnits="userSpaceOnUse">
      <stop
         offset="0"
         stop-color="#14B8A6"
         id="stop3"
         style="stop-color:#12332a;stop-opacity:1;" />
      <stop
         offset="100%"
         stop-color="#0D9488"
         id="stop4" />
    </linearGradient>
    <!-- lantern light cones -->
    <linearGradient
       id="beamL"
       gradientUnits="userSpaceOnUse"
       x1="146"
       y1="124"
       x2="215"
       y2="225">
      <stop
         offset="0%"
         stop-color="#FCD34D"
         stop-opacity="0.42"
         id="stop5" />
      <stop
         offset="100%"
         stop-color="#FCD34D"
         stop-opacity="0.04"
         id="stop6" />
    </linearGradient>
    <linearGradient
       id="beamR"
       gradientUnits="userSpaceOnUse"
       x1="366"
       y1="124"
       x2="297"
       y2="225">
      <stop
         offset="0%"
         stop-color="#FCD34D"
         stop-opacity="0.42"
         id="stop7" />
      <stop
         offset="100%"
         stop-color="#FCD34D"
         stop-opacity="0.04"
         id="stop8" />
    </linearGradient>
    <!-- warm wash on the pages, strongest at the top edge where light lands -->
    <linearGradient
       id="pageGlow"
       x1="0"
       y1="0"
       x2="0"
       y2="1">
      <stop
         offset="0%"
         stop-color="#FEF3C7"
         stop-opacity="0.55"
         id="stop9" />
      <stop
         offset="100%"
         stop-color="#FEF3C7"
         stop-opacity="0.06"
         id="stop10" />
    </linearGradient>
    <radialGradient
       id="bookHalo"
       cx="50%"
       cy="50%"
       r="50%">
      <stop
         offset="0%"
         stop-color="#FCD34D"
         stop-opacity="0.16"
         id="stop11" />
      <stop
         offset="100%"
         stop-color="#FCD34D"
         stop-opacity="0"
         id="stop12" />
    </radialGradient>
    <radialGradient
       id="lampHalo"
       cx="50%"
       cy="50%"
       r="50%">
      <stop
         offset="0%"
         stop-color="#FCD34D"
         stop-opacity="0.5"
         id="stop13" />
      <stop
         offset="100%"
         stop-color="#FCD34D"
         stop-opacity="0"
         id="stop14" />
    </radialGradient>
    <clipPath
       id="badgeClip">
      <circle
         cx="256"
         cy="256"
         r="240"
         id="circle14" />
    </clipPath>
    <radialGradient
       id="lampGlow"
       cx="256"
       cy="117.08"
       r="74.400003"
       fx="256"
       fy="117.08"
       gradientUnits="userSpaceOnUse"
       gradientTransform="matrix(1.4257122,0,0,1.3629032,-107.30363,-46.08871)">
      <stop
         offset="0%"
         stop-color="#FFF3D6"
         stop-opacity="0.95"
         id="s1" />
      <stop
         offset="55%"
         stop-color="#F6C453"
         stop-opacity="0.55"
         id="s2" />
      <stop
         offset="100%"
         stop-color="#F6C453"
         stop-opacity="0"
         id="s3" />
    </radialGradient>
    <linearGradient
       id="glassGrad"
       x1="170.12662"
       y1="146.12646"
       x2="170.12662"
       y2="191.29282"
       gradientTransform="matrix(1.3284223,0,0,0.92584684,0,-25.290728)"
       gradientUnits="userSpaceOnUse">
      <stop
         offset="0%"
         stop-color="#FFF3D6"
         stop-opacity="0.95"
         id="s4" />
      <stop
         offset="100%"
         stop-color="#F6C453"
         stop-opacity="0.85"
         id="s5" />
    </linearGradient>
    <linearGradient
       inkscape:collect="always"
       xlink:href="#pageGlow"
       id="linearGradient1"
       x1="128.02887"
       y1="245.20775"
       x2="128.02887"
       y2="316.3349"
       gradientTransform="scale(1.2653396,0.79030167)"
       gradientUnits="userSpaceOnUse" />
    <linearGradient
       inkscape:collect="always"
       xlink:href="#pageGlow"
       id="linearGradient2"
       x1="205.47843"
       y1="245.20775"
       x2="205.47843"
       y2="316.3349"
       gradientTransform="scale(1.2653396,0.79030167)"
       gradientUnits="userSpaceOnUse" />
  </defs>
  <g
     inkscape:label="lantern"
     inkscape:groupmode="layer"
     id="layer_lantern"
     transform="matrix(0.72333756,0,0,0.64397497,70.911332,24.289656)"
     style="display:inline">
    <ellipse
       id="lantern_glow"
       cx="257.67868"
       cy="127"
       fill="url(#lampGlow)"
       style="display:inline;fill:url(#lampGlow);stroke-width:1.39395"
       rx="88.39415"
       ry="84.5" />
    <line
       id="ray_0"
       x1="282.79001"
       y1="153.92999"
       x2="311.16"
       y2="176.10001"
       stroke="#f6c453"
       stroke-width="2"
       stroke-linecap="round"
       opacity="0.45" />
    <line
       id="ray_1"
       x1="275.98001"
       y1="160.50999"
       x2="310.07999"
       y2="207.42999"
       stroke="#f6c453"
       stroke-width="2"
       stroke-linecap="round"
       opacity="0.45" />
    <line
       id="ray_2"
       x1="267.63"
       y1="164.95"
       x2="282.67999"
       y2="206.3"
       stroke="#f6c453"
       stroke-width="2"
       stroke-linecap="round"
       opacity="0.45" />
    <line
       id="ray_3"
       x1="256"
       y1="167"
       x2="256"
       y2="233"
       stroke="#f6c453"
       stroke-width="2"
       stroke-linecap="round"
       opacity="0.45" />
    <line
       id="ray_4"
       x1="244.37"
       y1="164.95"
       x2="229.32001"
       y2="206.3"
       stroke="#f6c453"
       stroke-width="2"
       stroke-linecap="round"
       opacity="0.45" />
    <line
       id="ray_5"
       x1="236.02"
       y1="160.50999"
       x2="201.92"
       y2="207.42999"
       stroke="#f6c453"
       stroke-width="2"
       stroke-linecap="round"
       opacity="0.45" />
    <line
       id="ray_6"
       x1="229.21001"
       y1="153.92999"
       x2="200.84"
       y2="176.10001"
       stroke="#f6c453"
       stroke-width="2"
       stroke-linecap="round"
       opacity="0.45" />
    <path
       id="lantern_glass"
       d="m 226,110 h 60 l -2,41.81714 h -56 z"
       fill="url(#glassGrad)"
       style="display:inline;fill:url(#glassGrad);stroke-width:1.10901" />
    <path
       id="lantern_dome"
       d="m 256,80 c -6,2 -22.4,6 -32,22 16,4 48,4 64,0 -9.6,-16 -26,-20 -32,-22 z"
       fill="#1f3a34"
       style="display:inline" />
    <line
       id="dome_rib_0"
       x1="256"
       y1="83"
       x2="236.16"
       y2="99"
       stroke="#fbf8f1"
       stroke-width="1.4"
       opacity="0.6"
       style="display:inline" />
    <line
       id="dome_rib_1"
       x1="256"
       y1="82"
       x2="256"
       y2="105"
       stroke="#fbf8f1"
       stroke-width="1.4"
       opacity="0.6" />
    <line
       id="dome_rib_2"
       x1="256"
       y1="83"
       x2="275.84"
       y2="99"
       stroke="#fbf8f1"
       stroke-width="1.4"
       opacity="0.6" />
    <path
       id="lantern_rim"
       d="m 218,106 c 22.8,6 53.2,6 76,0 l -6,-4 c -19.2,3 -44.8,3 -64,0 z"
       fill="#1f3a34" />
    <line
       id="mullion_0"
       x1="226"
       y1="110"
       x2="228"
       y2="151.81714"
       stroke="#1f3a34"
       stroke-width="3.54885"
       stroke-linecap="round" />
    <line
       id="mullion_1"
       x1="247.60001"
       y1="110"
       x2="248.16"
       y2="151.81714"
       stroke="#1f3a34"
       stroke-width="3.54885"
       stroke-linecap="round" />
    <line
       id="mullion_2"
       x1="264.3631"
       y1="110.03394"
       x2="263.87689"
       y2="151.7832"
       stroke="#1f3a34"
       stroke-width="3.30411"
       stroke-linecap="round" />
    <line
       id="mullion_3"
       x1="286"
       y1="110"
       x2="284"
       y2="151.81714"
       stroke="#1f3a34"
       stroke-width="3.54885"
       stroke-linecap="round" />
    <line
       id="cage_top_line"
       x1="226"
       y1="110"
       x2="286"
       y2="110"
       stroke="#1f3a34"
       stroke-width="3" />
    <line
       id="cage_bot_line"
       x1="228"
       y1="153.31714"
       x2="284"
       y2="153.31714"
       stroke="#1f3a34"
       stroke-width="3" />
    <path
       id="lantern_collar"
       d="m 228,156.42284 h 56 c -6,2 -17,8 -28,12 -11,-4 -22,-10 -28,-12 z"
       fill="#1f3a34" />
    <path
       id="lantern_drop"
       d="m 249,154 c 0,8 4,6 7,10 3,-4 7,-2 7,-10 z"
       fill="#1f3a34" />
    <line
       id="lantern_neck"
       x1="256"
       y1="68"
       x2="256"
       y2="76"
       stroke="#1f3a34"
       stroke-width="2.6"
       stroke-linecap="round" />
    <ellipse
       id="lantern_knob"
       cx="256"
       cy="77.105713"
       rx="6.5"
       ry="4"
       fill="#1f3a34" />
    <path
       id="lantern_finial"
       d="m 256,55.105711 c 5,4 5,10 0,16 -5,-6 -5,-12 0,-16 z"
       fill="#1f3a34"
       style="display:inline" />
  </g>
  <g
     clip-path="url(#badgeClip)"
     id="clipped_art"
     style="display:inline"
     inkscape:label="interior">
    <g
       inkscape:label="mountains"
       inkscape:groupmode="layer"
       id="layer_mtn"
       transform="translate(0,-36)"
       style="display:inline">
      <g
         id="g2"
         transform="translate(7.99467,18.25731)">
        <path
           style="fill:#123329;fill-opacity:0.85098;stroke:#9cca80;stroke-width:0;stroke-dasharray:none"
           d="m 37.648229,231.74269 68.000011,-93.04434 57.63924,93.04434 z"
           id="path1" />
        <path
           style="fill:#12332a;fill-opacity:0.85098;stroke:#9cca80;stroke-width:0;stroke-dasharray:none"
           d="m 429.64822,231.74269 -39.99999,-88.81504 -82.34037,88.81504 z"
           id="path2-5" />
        <path
           style="fill:#323e18;fill-opacity:0.85098;stroke:#9cca80;stroke-width:0;stroke-dasharray:none"
           d="m 145.95088,203.75703 50.82623,-35.72149 51.22822,63.70715 h -84.71785 z"
           id="path3"
           sodipodi:nodetypes="ccccc" />
        <path
           style="fill:#323e18;fill-opacity:0.85098;stroke:#9cca80;stroke-width:0;stroke-dasharray:none"
           d="m 229.48002,208.70469 50.78328,-40.83587 46.38954,43.00774 -19.34498,20.86613 h -59.30253 z"
           id="path4"
           sodipodi:nodetypes="cccccc" />
        <path
           fill="#e2e8f0"
           opacity="0.75"
           d="m 105.64824,138.69835 15.86737,25.61395 -10.40081,6.44311 -14.74078,-9.08128 -13.64194,8.38038 z"
           id="path19"
           sodipodi:nodetypes="cccccc"
           style="display:inline" />
        <path
           fill="#e2e8f0"
           opacity="0.9"
           d="m 196.77711,168.03554 25.61411,31.85357 -20.07472,-7.29952 -16.81301,6.35837 c -10.11223,-4.10214 -11.78856,-4.99236 -22.41407,-7.23617 z"
           id="path17"
           sodipodi:nodetypes="cccccc"
           style="display:inline" />
        <path
           fill="#e2e8f0"
           opacity="0.9"
           d="m 280.2633,167.86882 26.36813,24.44589 -20.82874,-5.46031 -9.12322,6.00482 c -10.11223,-4.10214 -14.86882,0.63575 -25.49433,-1.60806 z"
           id="path17-2"
           sodipodi:nodetypes="cccccc"
           style="display:inline" />
        <path
           fill="#e2e8f0"
           opacity="0.75"
           d="m 389.64823,142.92765 12.92485,28.69804 -11.49903,3.76803 -14.70004,-5.74029 -18.85208,7.92671 z"
           id="path19-1"
           sodipodi:nodetypes="cccccc"
           style="display:inline" />
      </g>
    </g>
    <g
       inkscape:label="book"
       inkscape:groupmode="layer"
       id="layer_book"
       transform="matrix(1.09,0,0,1.09,-27.4,-20.539987)"
       style="display:inline">
      <!-- cover -->
      <path
         fill="url(#coverGrad)"
         d="m 152,209.1743 c 34,-14 74,-14 104,2 30,-16 70,-16 104,-2 v 58 c -34,-14 -74,-14 -104,2 -30,-16 -70,-16 -104,-2 z"
         id="path23"
         style="display:inline;fill:url(#coverGrad)" />
      <!-- left page -->
      <path
         fill="#f8fafc"
         d="m 162,211.1743 c 30,-12 66,-11 90,4 v 44 c -24,-14 -60,-15 -90,-4 z"
         id="path24"
         style="display:inline" />
      <!-- right page -->
      <path
         fill="#f8fafc"
         d="m 350,211.1743 c -30,-12 -66,-11 -90,4 v 44 c 24,-14 60,-15 90,-4 z"
         id="path25"
         style="display:inline" />
      <!-- page rules -->
      <g
         stroke="#0d9488"
         stroke-width="2.4"
         stroke-linecap="round"
         opacity="0.55"
         fill="none"
         id="g31"
         transform="translate(0,9.174312)">
        <path
           d="m 174,210 c 22,-8 48,-7 68,3"
           id="path26"
           style="display:inline" />
        <path
           d="m 174,222 c 22,-8 48,-7 68,3"
           id="path27"
           style="display:inline" />
        <path
           d="m 174,234 c 22,-8 48,-7 68,3"
           id="path28"
           style="display:inline" />
        <path
           d="m 338,210 c -22,-8 -48,-7 -68,3"
           id="path29" />
        <path
           d="m 338,222 c -22,-8 -48,-7 -68,3"
           id="path30" />
        <path
           d="m 338,234 c -22,-8 -48,-7 -68,3"
           id="path31"
           inkscape:label="path31"
           style="display:inline" />
      </g>
      <!-- warm light washing over both pages -->
      <path
         fill="url(#pageGlow)"
         d="m 162,202 c 30,-12 66,-11 90,4 v 44 c -24,-14 -60,-15 -90,-4 z"
         id="path32"
         style="display:none;fill:url(#linearGradient1)" />
      <path
         fill="url(#pageGlow)"
         d="m 350,202 c -30,-12 -66,-11 -90,4 v 44 c 24,-14 60,-15 90,-4 z"
         id="path33"
         style="display:none;fill:url(#linearGradient2)" />
      <!-- spine -->
      <path
         fill="#0d9488"
         d="m 252,204 c 2,-2 6,-2 8,0 v 48 c -2,-2 -6,-2 -8,0 z"
         id="path34"
         style="display:none" />
    </g>
    <g
       inkscape:label="hills"
       inkscape:groupmode="layer"
       id="layer_hills"
       style="display:inline">
      <path
         fill="#2e7d5f"
         d="m 331.23264,465.33313 c -62.95173,-44 -174.50384,-53.8434 -249.05194,-43.8434 -69.57823,9 -33.067477,-5.93502 -87.7360895,24.06498 l -2,61.55539 H 396.66099 Z"
         id="path2"
         style="display:inline;fill:#1f5748;fill-opacity:1;stroke-width:0.910117"
         sodipodi:nodetypes="cccccc" />
      <path
         fill="#2e7d5f"
         d="m 186.19847,481.07857 c 62.95173,-44 139.91441,-68.19802 214.46252,-58.19802 69.57823,9 30.1704,-2.43594 84.83901,27.56406 L 487.5,512 H 83.283618 Z"
         id="path36"
         style="display:inline;stroke-width:0.910117"
         sodipodi:nodetypes="cccccc" />
      <path
         fill="#47a377"
         d="m 83.283618,496.36073 c 80.000002,-34 144.547722,-65.4013 247.949022,-31.0276 59.35455,24.4565 37.15908,21.99578 107.15908,51.99578 l 140.8919,-6.96818 H 83.283618 Z"
         id="path37"
         style="display:inline"
         sodipodi:nodetypes="cccccc" />
    </g>
    <g
       inkscape:label="wordmark"
       inkscape:groupmode="layer"
       id="layer_word"
       style="display:inline">
      <text
         x="253.28418"
         y="387.64722"
         text-anchor="middle"
         font-family="'Liberation Serif', 'Nimbus Roman', 'Times New Roman', serif"
         font-weight="bold"
         font-size="108px"
         letter-spacing="4"
         fill="#f8fafc"
         id="text_olk"
         style="display:inline;fill:#12332a;fill-opacity:0.85098;stroke:none;stroke-width:1.75748;stroke-dasharray:none;stroke-opacity:1">OLK</text>
      <text
         text-anchor="middle"
         font-family="'Liberation Sans', 'Nimbus Sans', Arial, sans-serif"
         font-weight="normal"
         font-size="19.5px"
         letter-spacing="4.6"
         fill="#2dd4bf"
         id="text_tagline"
         style="display:inline;fill:#2dd4bf;fill-opacity:1;stroke:#9cca80;stroke-width:0.245669;stroke-dasharray:none;stroke-opacity:1"
         x="248.80705"
         y="297.65915">OPEN LIBRARY KASHMIR</text>
    </g>
  </g>
  <g
     inkscape:label="rings"
     inkscape:groupmode="layer"
     id="layer_rings"
     style="display:inline">
    <circle
       cx="256"
       cy="256"
       r="240"
       fill="none"
       stroke="#14b8a6"
       stroke-width="4"
       id="circle28"
       style="display:inline;stroke:#12332a;stroke-width:7.40031;stroke-dasharray:none;stroke-opacity:0.85098" />
  </g>
</svg>
