<?xml version="1.0" encoding="UTF-8" standalone="no"?>
<!-- OLK - Open Library Kashmir - primary badge logo (v2) -->

<svg
   width="512"
   height="512"
   viewBox="0 0 512 512"
   version="1.1"
   id="svg41"
   sodipodi:docname="OLK_logo_v2.svg"
   inkscape:version="1.4.3 (0d15f75042, 2025-12-25)"
   xmlns:inkscape="http://www.inkscape.org/namespaces/inkscape"
   xmlns:sodipodi="http://sodipodi.sourceforge.net/DTD/sodipodi-0.dtd"
   xmlns:xlink="http://www.w3.org/1999/xlink"
   xmlns="http://www.w3.org/2000/svg"
   xmlns:svg="http://www.w3.org/2000/svg">
  <sodipodi:namedview
     id="namedview41"
     pagecolor="#ffffff"
     bordercolor="#000000"
     borderopacity="0.25"
     inkscape:showpageshadow="2"
     inkscape:pageopacity="0.0"
     inkscape:pagecheckerboard="0"
     inkscape:deskcolor="#d1d1d1"
     inkscape:zoom="0.84107037"
     inkscape:cx="257.41009"
     inkscape:cy="272.86659"
     inkscape:window-width="1453"
     inkscape:window-height="883"
     inkscape:window-x="0"
     inkscape:window-y="0"
     inkscape:window-maximized="1"
     inkscape:current-layer="layer_badge" />
  <defs
     id="defs14">
    <inkscape:path-effect
       effect="bspline"
       id="path-effect48"
       is_visible="true"
       lpeversion="1.3"
       weight="33.333333"
       steps="2"
       helper_size="0"
       apply_no_weight="true"
       apply_with_weight="true"
       only_selected="false"
       uniform="false" />
    <linearGradient
       id="linearGradient46"
       inkscape:collect="always">
      <stop
         style="stop-color:#dbdbdb;stop-opacity:1;"
         offset="0"
         id="stop46" />
      <stop
         style="stop-color:#96961a;stop-opacity:0;"
         offset="1"
         id="stop47" />
    </linearGradient>
    <linearGradient
       id="linearGradient43"
       inkscape:collect="always">
      <stop
         style="stop-color:#673167;stop-opacity:0.61355805;"
         offset="0"
         id="stop43" />
      <stop
         style="stop-color:#45b4d5;stop-opacity:1;"
         offset="1"
         id="stop44" />
    </linearGradient>
    <radialGradient
       id="bgGrad"
       cx="50%"
       cy="32%"
       r="85%">
      <stop
         offset="0%"
         stop-color="#1E293B"
         id="stop1" />
      <stop
         offset="100%"
         stop-color="#0F172A"
         id="stop2" />
    </radialGradient>
    <linearGradient
       id="coverGrad"
       x1="0"
       y1="0"
       x2="0"
       y2="1">
      <stop
         offset="0%"
         stop-color="#14B8A6"
         id="stop3" />
      <stop
         offset="100%"
         stop-color="#0D9488"
         id="stop4" />
    </linearGradient>
    <!-- lantern light cones -->
    <linearGradient
       id="beamL"
       gradientUnits="userSpaceOnUse"
       x1="146"
       y1="124"
       x2="215"
       y2="225">
      <stop
         offset="0%"
         stop-color="#FCD34D"
         stop-opacity="0.42"
         id="stop5" />
      <stop
         offset="100%"
         stop-color="#FCD34D"
         stop-opacity="0.04"
         id="stop6" />
    </linearGradient>
    <linearGradient
       id="beamR"
       gradientUnits="userSpaceOnUse"
       x1="366"
       y1="124"
       x2="297"
       y2="225">
      <stop
         offset="0%"
         stop-color="#FCD34D"
         stop-opacity="0.42"
         id="stop7" />
      <stop
         offset="100%"
         stop-color="#FCD34D"
         stop-opacity="0.04"
         id="stop8" />
    </linearGradient>
    <!-- warm wash on the pages, strongest at the top edge where light lands -->
    <linearGradient
       id="pageGlow"
       x1="0"
       y1="0"
       x2="0"
       y2="1">
      <stop
         offset="0%"
         stop-color="#FEF3C7"
         stop-opacity="0.55"
         id="stop9" />
      <stop
         offset="100%"
         stop-color="#FEF3C7"
         stop-opacity="0.06"
         id="stop10" />
    </linearGradient>
    <radialGradient
       id="bookHalo"
       cx="50%"
       cy="50%"
       r="50%">
      <stop
         offset="0%"
         stop-color="#FCD34D"
         stop-opacity="0.16"
         id="stop11" />
      <stop
         offset="100%"
         stop-color="#FCD34D"
         stop-opacity="0"
         id="stop12" />
    </radialGradient>
    <radialGradient
       id="lampHalo"
       cx="50%"
       cy="50%"
       r="50%">
      <stop
         offset="0%"
         stop-color="#FCD34D"
         stop-opacity="0.5"
         id="stop13" />
      <stop
         offset="100%"
         stop-color="#FCD34D"
         stop-opacity="0"
         id="stop14" />
    </radialGradient>
    <clipPath
       id="badgeClip">
      <circle
         cx="256"
         cy="256"
         r="240"
         id="circle14" />
    </clipPath>
    <linearGradient
       inkscape:collect="always"
       xlink:href="#linearGradient43"
       id="linearGradient44"
       x1="213.62981"
       y1="15.706957"
       x2="298.37012"
       y2="496.29309"
       gradientUnits="userSpaceOnUse" />
    <linearGradient
       inkscape:collect="always"
       xlink:href="#linearGradient46"
       id="linearGradient47"
       x1="17.29265"
       y1="226.69043"
       x2="494.70737"
       y2="285.30957"
       gradientUnits="userSpaceOnUse" />
  </defs>
  <g
     inkscape:label="badge"
     inkscape:groupmode="layer"
     id="layer_badge"
     style="display:inline;fill:url(#linearGradient44)">
    <circle
       cx="256"
       cy="256"
       r="240"
       fill="url(#bgGrad)"
       id="circle16"
       style="display:inline;fill:url(#linearGradient44);stroke:url(#linearGradient47)" />
  </g>
  <g
     clip-path="url(#badgeClip)"
     id="clipped_art"
     style="display:inline">
    <g
       inkscape:label="mountains"
       inkscape:groupmode="layer"
       id="layer_mtn"
       transform="translate(0,-36)"
       style="display:inline">
      <path
         fill="#334155"
         opacity="0.85"
         d="m 60,246 68,-88 40,46 46,-72 48,64 54,-78 56,82 40,-38 40,84 z"
         id="path16"
         style="display:inline" />
      <path
         fill="#e2e8f0"
         opacity="0.9"
         d="M 214,132 234.99961,159.99947 222,156 l -10,9 -11,-12 -5,7 z"
         id="path17"
         sodipodi:nodetypes="ccccccc"
         style="display:inline" />
      <path
         fill="#e2e8f0"
         opacity="0.9"
         d="m 316,118 22,32 -12,-6 -11,10 -11,-13 -7,5 z"
         id="path18"
         style="display:inline" />
      <path
         fill="#e2e8f0"
         opacity="0.75"
         d="m 128,158 16.63844,19.13421 -12.42188,-2.20215 L 124,181 114,176 Z"
         id="path19"
         sodipodi:nodetypes="cccccc"
         style="display:inline" />
      <path
         fill="#e2e8f0"
         opacity="0.75"
         d="M 412,162 422.55367,184.1627 412,177.4862 403.24416,182 l -6.62921,-5.3842 z"
         id="path20"
         sodipodi:nodetypes="cccccc"
         style="display:inline" />
      <path
         style="display:inline;fill:none;fill-opacity:1;stroke:#caca80;stroke-width:0.755906;stroke-dasharray:none;stroke-opacity:1"
         d="m 93.03621,463.87739 c 44.09064,-9.29246 88.18041,-18.58474 141.65551,-16.51182 53.4751,2.07293 116.33128,15.51089 179.1887,28.94912"
         id="path48"
         transform="translate(-1.1189399,-2.584565)"
         sodipodi:nodetypes="ccc"
         inkscape:original-d="M 93.03621,463.87739 C 137.12685,454.58493 181.21662,445.29265 225.30814,436 c 62.85868,13.4385 125.71486,26.87646 188.57228,40.31469"
         inkscape:path-effect="#path-effect48" />
    </g>
    <g
       inkscape:label="lamplight"
       inkscape:groupmode="layer"
       id="layer_light"
       style="display:inline">
      <!-- soft halo behind the whole book -->
      <ellipse
         cx="256"
         cy="226"
         rx="150"
         ry="80"
         fill="url(#bookHalo)"
         id="ellipse20"
         style="display:inline" />
      <!-- beams from the two lanterns onto the pages -->
      <path
         fill="url(#beamL)"
         d="m 139,120 h 14 l 97,120 -88,14 z"
         id="path21"
         style="display:inline" />
      <path
         fill="url(#beamR)"
         d="m 359,120 h 14 l -23,134 -88,-14 z"
         id="path22"
         style="display:inline" />
    </g>
    <g
       inkscape:label="book"
       inkscape:groupmode="layer"
       id="layer_book"
       transform="matrix(1.09,0,0,1.09,-23.04,-20.52)"
       style="display:inline">
      <!-- cover -->
      <path
         fill="url(#coverGrad)"
         d="m 152,200 c 34,-14 74,-14 104,2 30,-16 70,-16 104,-2 v 58 c -34,-14 -74,-14 -104,2 -30,-16 -70,-16 -104,-2 z"
         id="path23" />
      <!-- left page -->
      <path
         fill="#f8fafc"
         d="m 162,202 c 30,-12 66,-11 90,4 v 44 c -24,-14 -60,-15 -90,-4 z"
         id="path24" />
      <!-- right page -->
      <path
         fill="#f8fafc"
         d="m 350,202 c -30,-12 -66,-11 -90,4 v 44 c 24,-14 60,-15 90,-4 z"
         id="path25" />
      <!-- page rules -->
      <g
         stroke="#0d9488"
         stroke-width="2.4"
         stroke-linecap="round"
         opacity="0.55"
         fill="none"
         id="g31">
        <path
           d="m 174,210 c 22,-8 48,-7 68,3"
           id="path26" />
        <path
           d="m 174,222 c 22,-8 48,-7 68,3"
           id="path27" />
        <path
           d="m 174,234 c 22,-8 48,-7 68,3"
           id="path28" />
        <path
           d="m 338,210 c -22,-8 -48,-7 -68,3"
           id="path29" />
        <path
           d="m 338,222 c -22,-8 -48,-7 -68,3"
           id="path30" />
        <path
           d="m 338,234 c -22,-8 -48,-7 -68,3"
           id="path31"
           inkscape:label="path31" />
      </g>
      <!-- warm light washing over both pages -->
      <path
         fill="url(#pageGlow)"
         d="m 162,202 c 30,-12 66,-11 90,4 v 44 c -24,-14 -60,-15 -90,-4 z"
         id="path32" />
      <path
         fill="url(#pageGlow)"
         d="m 350,202 c -30,-12 -66,-11 -90,4 v 44 c 24,-14 60,-15 90,-4 z"
         id="path33" />
      <!-- spine -->
      <path
         fill="#0d9488"
         d="m 252,204 c 2,-2 6,-2 8,0 v 48 c -2,-2 -6,-2 -8,0 z"
         id="path34"
         style="display:inline" />
    </g>
    <g
       inkscape:label="hills"
       inkscape:groupmode="layer"
       id="layer_hills"
       style="display:inline">
      <path
         fill="#1f5748"
         d="m 14,446 c 56,-44 124,-80 242,-79 114,1 182,37 242,81 v 64 H 14 Z"
         id="path35"
         style="display:inline" />
      <path
         fill="#2e7d5f"
         d="m 12,468 c 76,-44 166,-62 256,-52 84,9 166,30 232,60 v 36 H 12 Z"
         id="path36"
         style="display:inline" />
      <path
         fill="#47a377"
         d="m 8,498 c 80,-34 182,-44 264,-34 76,9 162,0 232,30 v 18 H 8 Z"
         id="path37"
         style="display:inline" />
      <path
         fill="#47a377"
         d="m 8,498 c 80,-34 182,-44 264,-34 76,9 162,0 232,30 v 18 H 8 Z"
         id="path49"
         style="display:inline" />
    </g>
    <g
       inkscape:label="wordmark"
       inkscape:groupmode="layer"
       id="layer_word"
       style="display:inline">
      <text
         x="256"
         y="348"
         text-anchor="middle"
         font-family="'Liberation Serif', 'Nimbus Roman', 'Times New Roman', serif"
         font-weight="bold"
         font-size="108px"
         letter-spacing="4"
         fill="#f8fafc"
         id="text_olk"
         style="display:inline">OLK</text>
      <text
         text-anchor="middle"
         font-family="'Liberation Sans', 'Nimbus Sans', Arial, sans-serif"
         font-weight="normal"
         font-size="19.5px"
         letter-spacing="4.6"
         fill="#2dd4bf"
         id="text_tagline"
         style="display:inline;stroke-width:0.24566929;stroke-dasharray:none;stroke:#9cca80;stroke-opacity:1;fill:#2dd4bf;fill-opacity:1"
         transform="translate(2,-40)"><textPath
           xlink:href="#path48"
           startOffset="50%"
           id="textPath48">OPEN LIBRARY KASHMIR</textPath></text>
    </g>
  </g>
  <g
     inkscape:label="rings"
     inkscape:groupmode="layer"
     id="layer_rings"
     style="display:inline">
    <circle
       cx="256"
       cy="256"
       r="240"
       fill="none"
       stroke="#14b8a6"
       stroke-width="4"
       id="circle28"
       style="display:inline;stroke-width:7.40031;stroke-dasharray:none" />
  </g>
  <g
     inkscape:label="lanterns"
     inkscape:groupmode="layer"
     id="layer_lanterns"
     style="display:inline">
    <!-- left lantern -->
    <g
       id="lantern_left"
       transform="translate(146,106)">
      <circle
         cx="0"
         cy="8"
         r="17"
         fill="url(#lampHalo)"
         id="circle37" />
      <line
         x1="0"
         y1="-14"
         x2="0"
         y2="-7"
         stroke="#0d9488"
         stroke-width="1.6"
         id="line37" />
      <path
         d="m -5,-7 q 5,-4 10,0 v 2 H -5 Z"
         fill="#0d9488"
         id="path38" />
      <path
         d="M -6,-5 Q -8,4 0,12 8,4 6,-5 Z"
         fill="#fcd34d"
         id="path39" />
      <ellipse
         cx="0"
         cy="2"
         rx="3"
         ry="4.5"
         fill="#fef3c7"
         id="ellipse39" />
      <rect
         x="-3.4000001"
         y="11"
         width="6.8000002"
         height="2.5999999"
         rx="1.3"
         fill="#0d9488"
         id="rect39" />
    </g>
    <!-- right lantern -->
    <g
       id="lantern_right"
       transform="translate(366,106)">
      <circle
         cx="0"
         cy="8"
         r="17"
         fill="url(#lampHalo)"
         id="circle39"
         style="display:inline" />
      <line
         x1="0"
         y1="-14"
         x2="0"
         y2="-7"
         stroke="#0d9488"
         stroke-width="1.6"
         id="line39"
         style="display:none" />
      <path
         d="m -5,-7 q 5,-4 10,0 v 2 H -5 Z"
         fill="#0d9488"
         id="path40"
         style="display:inline" />
      <path
         d="M -6,-5 Q -8,4 0,12 8,4 6,-5 Z"
         fill="#fcd34d"
         id="path41"
         style="display:inline" />
      <ellipse
         cx="0"
         cy="2"
         rx="3"
         ry="4.5"
         fill="#fef3c7"
         id="ellipse41"
         style="display:inline" />
      <rect
         x="-3.4000001"
         y="11"
         width="6.8000002"
         height="2.5999999"
         rx="1.3"
         fill="#0d9488"
         id="rect41"
         style="display:inline" />
    </g>
    <!-- knowledge spark -->
  </g>
</svg>
